General                          : ChattChitto RG - Movies
==========
Complete name                    : Avatar 2009 BDRip.mp4
Format                           : MPEG-4
Format profile                   : Base Media
Codec ID                         : isom
File size                        : 3.00 GiB
Duration                         : 2h 41mn
Overall bit rate                 : 2 660 Kbps
Encoded date                     : UTC 2010-04-23 11:28:55

Video
==========
ID                               : 1
Format                           : AVC
Format/Info                      : Advanced Video Codec
Format profile                   : High@L3.1
Format settings, CABAC           : Yes
Format settings, ReFrames        : 3 frames
Codec ID                         : avc1
Codec ID/Info                    : Advanced Video Coding
Duration                         : 2h 41mn
Bit rate mode                    : Variable
Bit rate                         : 2 300 Kbps
Maximum bit rate                 : 10.1 Mbps
Width                            : 1 280 pixels
Height                           : 720 pixels
Display aspect ratio             : 16:9
Frame rate mode                  : Constant
Frame rate                       : 23.976 fps
Resolution                       : 8 bits
Colorimetry                      : 4:2:0
Scan type                        : Progressive
Bits/(Pixel*Frame)               : 0.104
Stream size                      : 2.60 GiB (86%)
Writing library                  : x264 core 76 r1271 496d79d
Encoded date                     : UTC 2010-04-23 09:56:23

Audio
==========
ID                               : 2
Format                           : AAC
Format/Info                      : Advanced Audio Codec
Format version                   : Version 4
Format profile                   : LC
Format settings, SBR             : No
Codec ID                         : 40
Duration                         : 2h 41mn
Bit rate mode                    : Variable
Bit rate                         : 352.8 Kbps
Maximum bit rate                 : 443 Kbps
Channel(s)                       : 6 channels
Channel positions                : Front: L C R, Side: L R, LFE
Sampling rate                    : 48.0 KHz
Stream size                      : 412 MiB (13%)
Encoded date                     : UTC 2010-04-23 11:30:26

Subtitles                        : Hardcoded Navi Parts | English | Spanish | Portuguese | French Navi Parts


----------------------------------------------------
IMDB Link: http://www.imdb.com/title/tt0499549/
----------------------------------------------------


Screen Shots:
==============
http://bayimg.com/EaMIbAacb
http://bayimg.com/EaMiAaAcB
http://bayimg.com/DaMioaAcB
http://bayimg.com/DaMimAAcb
http://bayimg.com/daMILaACB



Plot:
======
An ex-Marine finds himself thrust into hostilities on an alien planet filled with exotic life forms. As an Avatar, a human mind in an alien body, he finds himself torn between two worlds, in a desperate fight for his own survival and that of the indigenous people.




Release Info:
==============
original name .... : Avatar 2009 BDRip.mp4                                
ripper.............: Recalled2Life (R2L)
encoder............: Recalled2Life (R2L)
video codec........: H264/.MP4                   
video bitrate......: 2300 Kbps                           
audio codec........: AAC-LC	                                        
aspect ratio.......: 16:9 | 1.78:1                              
resolution.........: 1280 x 720                             
genre..............: Action | Adventure | Fantasy | Sci-Fi          
runtime............: 2h 41mn
language...........: English                              
subtitles..........: Hardcoded Navi Parts | English | Spanish | Portuguese | French Navi Parts
sample.............: Yes [19.1 MB]
2ch Audio..........: 2ch Audio for XBox Viewers  



Source:
========
Avatar Blu-Ray 1080p MPEG-4 AVC/DTS-HD 5.1 [41.8 GB]


Notes:
=======
ChattChitto RG Encourages Burning this Film with ConvertXtoDVD.
Enhanced and Filtered for your viewing pleasure ;)